<svg width="168" height="80" viewBox="0 0 168 80" fill="none" xmlns="http://www.w3.org/2000/svg">
<path d="M146.124 21.4979C144.531 19.7914 142.445 19.0757 139.857 19.3462C137.129 19.63 134.938 20.6992 133.275 22.5496C131.613 24.4045 130.731 26.5168 130.626 28.8953C130.482 31.2432 131.194 33.2377 132.76 34.8743C134.327 36.5153 136.405 37.1961 138.993 36.9255C141.646 36.6506 143.793 35.6206 145.425 33.8444C147.062 32.0638 147.983 29.9994 148.197 27.6427C148.406 25.2554 147.717 23.2087 146.124 21.4979ZM144.059 27.6166C143.946 29 143.427 30.2045 142.488 31.2476C141.563 32.2819 140.411 32.871 139.058 33.0151C137.701 33.1549 136.623 32.7969 135.82 31.9459C135.017 31.0862 134.672 29.9689 134.785 28.5853C134.89 27.2019 135.418 26.0017 136.352 24.9935C137.291 23.9811 138.438 23.405 139.791 23.2611C141.149 23.117 142.226 23.4618 143.025 24.2953C143.819 25.1245 144.164 26.233 144.059 27.6166ZM142.056 3.37315L116.264 32.9933L119.567 34.6648L145.351 4.98787L142.056 3.37315ZM129.906 2.25587C128.313 0.514572 126.205 -0.218717 123.582 0.0562368C120.82 0.344252 118.611 1.43974 116.957 3.34688C115.299 5.24976 114.422 7.40999 114.321 9.82345C114.247 12.1627 114.998 14.1178 116.578 15.6846C118.153 17.2514 120.218 17.8973 122.771 17.6311C125.389 17.3605 127.515 16.3611 129.134 14.6328C130.757 12.9089 131.691 10.8883 131.944 8.56213C132.18 6.10082 131.504 3.99725 129.906 2.25587ZM127.584 8.32218C127.471 9.70993 126.952 10.9146 126.018 11.9532C125.088 12.9918 123.94 13.5811 122.583 13.7251C121.23 13.8647 120.148 13.5069 119.345 12.6515C118.542 11.7916 118.197 10.6745 118.31 9.29542C118.42 7.90751 118.943 6.71171 119.882 5.69914C120.816 4.69098 121.963 4.11062 123.316 3.96658C124.674 3.82261 125.752 4.16741 126.55 5.00093C127.344 5.8302 127.694 6.94308 127.584 8.32218Z" fill="white"/>
<path d="M121.516 69.7563C118.397 70.0822 115.8 69.2054 113.724 67.1254C111.648 65.0457 110.724 62.3961 110.952 59.1781C111.177 55.9394 112.401 53.165 114.623 50.8549C116.845 48.5451 119.599 47.2185 122.883 46.8753C126.001 46.5492 128.6 47.4364 130.678 49.5371C132.755 51.6376 133.691 54.2957 133.484 57.512C133.238 60.7535 132.008 63.5181 129.794 65.8058C127.58 68.0942 124.82 69.4108 121.516 69.7563ZM121.618 66.2378C123.828 66.0067 125.719 65.0733 127.292 63.4368C128.864 61.8004 129.73 59.8464 129.889 57.5744C130.048 55.303 129.441 53.4826 128.066 52.1121C126.69 50.7421 124.898 50.1722 122.688 50.4033C120.498 50.6321 118.634 51.5736 117.095 53.2274C115.555 54.8814 114.706 56.8439 114.547 59.1156C114.388 61.3869 114.979 63.1997 116.321 64.5518C117.663 65.9047 119.428 66.4666 121.618 66.2378Z" fill="white"/>
<path d="M150.608 47.8304L141.468 48.7855L141.04 54.9691L149.87 54.0463L149.638 57.5156L140.8 58.4391L140.18 67.3989L136.594 67.7738L138.127 45.6895L150.84 44.3608L150.608 47.8304Z" fill="white"/>
<path d="M167.276 46.0881L158.136 47.0433L157.708 53.2269L166.538 52.3041L166.305 55.7734L157.468 56.6971L156.848 65.6568L153.262 66.0316L154.795 43.9475L167.508 42.6187L167.276 46.0881Z" fill="white"/>
<path d="M47.8091 19.1321L21.9893 21.8306L20.1612 34.3859L26.9561 33.6758C33.0378 33.0402 38.2753 34.6362 42.6659 38.4611C47.0556 42.2876 48.9977 47.7272 48.4929 54.7792C47.9932 61.8965 45.4268 67.5466 40.7946 71.7256C36.1613 75.9064 30.5115 78.3446 23.8473 79.0412C18.4114 79.6092 13.6237 78.8662 9.48375 76.8135C5.34432 74.7607 2.18261 71.4283 0 66.8146L11.6579 59.1195C13.6282 64.2124 17.7212 66.4341 23.9335 65.7849C27.2338 65.44 29.8639 64.3156 31.8235 62.4091C33.783 60.5037 34.8436 58.136 35.0063 55.3056C35.2327 52.4698 34.4972 50.2898 32.8017 48.7652C31.1045 47.2421 28.6067 46.6523 25.3063 46.9971L4.72808 49.1478L10.1001 10.4146L48.7331 6.37695L47.8091 19.1321Z" fill="white"/>
<path d="M78.3187 73.1879C69.7115 74.0874 63.1291 71.3576 58.5729 64.9971C54.0155 58.6382 52.1168 50.0205 52.8783 39.147C53.6388 28.2736 56.5301 19.4833 61.5541 12.7761C66.5768 6.06912 73.3598 2.26922 81.9017 1.37648C90.4437 0.483744 96.991 3.20181 101.545 9.52876C106.098 15.8575 107.995 24.4571 107.235 35.3304C106.473 46.2041 103.583 55.0112 98.564 61.7499C93.5432 68.4903 86.7952 72.3019 78.3187 73.1879ZM78.5021 59.9213C82.9671 59.4546 86.4898 57.1732 89.0714 53.0763C91.6514 48.9796 93.2104 43.2403 93.748 35.8567C94.2844 28.4751 93.5288 22.9605 91.4794 19.314C89.4304 15.6688 86.1398 14.0827 81.611 14.556C77.1461 15.0227 73.6235 17.3208 71.0468 21.4495C68.4687 25.5796 66.9115 31.3358 66.3752 38.7175C65.8374 46.1012 66.593 51.5985 68.6386 55.2115C70.6845 58.8251 73.9717 60.3949 78.5021 59.9213Z" fill="white"/>
</svg>
