<svg width="206" height="186" viewBox="0 0 206 186" fill="none" xmlns="http://www.w3.org/2000/svg">
<path d="M42.576 24.3215C83.4941 -12.0499 161.973 -7.7432 192.497 38.0186C208.521 62.0437 210.31 95.9685 197.228 122.691C181.654 154.507 150.277 165.338 136.022 170.258C127.039 173.359 107.451 178.806 82.8094 175.915C66.6335 174.018 48.5337 171.894 33.4943 157.58C10.2818 135.486 11.4393 102.392 11.9049 92.2962C12.1782 86.3689 14.4369 49.334 42.576 24.3215Z" fill="url(#paint0_linear_1293_9573)"/>
<path opacity="0.15" d="M45.4808 166.384C48.8752 168.154 54.0205 170.424 60.554 171.701C77.8749 175.085 89.4702 168.458 106.13 165.428C115.67 163.692 129.301 162.694 146.696 166.264C149.457 160.492 152.176 154.197 154.725 147.387C159.416 134.853 162.579 123.106 164.736 112.636C123.481 124.352 82.2271 136.068 40.9727 147.785C42.4754 153.985 43.9781 160.184 45.4808 166.384Z" fill="#1C0072"/>
<path d="M34.8556 20.8354C29.5565 24.5573 14.2512 36.2679 5.96728 57.1948C-8.99207 94.9853 5.37635 146.584 35.6651 162.612C73.0999 182.421 123.296 141.779 146.695 166.264C155.227 175.192 152.966 185.213 157.854 185.887C171.929 187.827 226.11 109.627 190.753 48.2295C158.599 -7.60585 76.201 -8.20462 34.8556 20.8354Z" fill="url(#paint1_linear_1293_9573)"/>
<defs>
<linearGradient id="paint0_linear_1293_9573" x1="11.7305" y1="88.3675" x2="205.914" y2="88.3675" gradientUnits="userSpaceOnUse">
<stop stop-color="#FFB12F"/>
<stop offset="0.9944" stop-color="#FC9000"/>
</linearGradient>
<linearGradient id="paint1_linear_1293_9573" x1="95.1459" y1="2.28777" x2="106.312" y2="165.833" gradientUnits="userSpaceOnUse">
<stop stop-color="#9C2FFF"/>
<stop offset="0.9944" stop-color="#5A00D5"/>
</linearGradient>
</defs>
</svg>
