<svg width="114" height="65" viewBox="0 0 114 65" fill="none" xmlns="http://www.w3.org/2000/svg">
<path fill-rule="evenodd" clip-rule="evenodd" d="M24.203 0.126645C23.7809 0.194189 23.0633 0.33772 22.599 0.455922C22.1347 0.565682 21.51 0.709213 21.2061 0.759871C20.9022 0.810529 20.1677 0.987832 19.5599 1.14825C18.9521 1.30867 17.9475 1.62106 17.3228 1.83213C16.6981 2.04321 15.8624 2.38093 15.4656 2.57512C15.0688 2.77775 14.3513 3.15768 13.8616 3.42786C13.372 3.69804 12.7304 4.0442 12.4265 4.19618C12.1226 4.35659 11.7427 4.56767 11.5823 4.66898C11.4135 4.7703 10.9661 5.08269 10.5862 5.36131C10.1979 5.63993 9.78419 5.94388 9.65756 6.03675C9.53093 6.12962 9.03286 6.54333 8.55167 6.96548C8.07048 7.38763 7.42889 8.0293 7.11654 8.39235C6.81263 8.7554 6.33989 9.32952 6.06975 9.6588C5.79961 9.98808 5.42816 10.4862 5.25088 10.7648C5.06515 11.0435 4.79502 11.4403 4.64306 11.6514C4.49111 11.854 4.17876 12.2339 3.95927 12.4957C3.73134 12.7489 3.45275 13.112 3.34301 13.2977C3.23326 13.4835 2.94624 14.1505 2.70142 14.7837C2.45661 15.4085 2.1527 16.0755 2.02607 16.2612C1.89944 16.4385 1.72216 16.8016 1.6293 17.0549C1.54488 17.3082 1.36759 17.7472 1.24096 18.0258C1.11433 18.3129 0.987711 18.811 0.945501 19.1656C0.903292 19.5118 0.82731 20.1788 0.7851 20.6432C0.717565 21.2848 0.624712 21.6648 0.388338 22.2473C0.211058 22.661 0.0506515 23.2352 0.0253258 23.5138C-0.00844192 23.7924 -0.00844192 25.042 0.0253258 26.3C0.0675354 27.9379 0.118194 28.74 0.219497 29.1537C0.295474 29.4661 0.438988 29.8798 0.531849 30.0824C0.675362 30.3611 0.726009 30.6734 0.77666 31.4924C0.810428 32.075 0.903294 32.8349 0.979272 33.181C1.06369 33.5272 1.31695 34.2702 1.55333 34.8274C1.78126 35.3846 2.02607 35.9166 2.07672 36.0094C2.13581 36.1023 2.254 36.3894 2.33842 36.6427C2.42284 36.8959 2.58324 37.2506 2.69298 37.4279C2.79428 37.5967 2.9378 37.8669 2.99689 38.0189C3.06443 38.1624 3.3008 38.6099 3.53718 39.0067C3.76511 39.4035 4.06901 39.8932 4.20408 40.1043C4.33915 40.3154 4.73593 40.8642 5.08205 41.3285C5.42816 41.7929 5.99378 42.4346 6.33145 42.7638C6.67757 43.0931 7.06589 43.473 7.20096 43.6081C7.33603 43.7432 7.83412 44.2667 8.30687 44.7564C8.78805 45.2461 9.4634 45.854 9.80951 46.1073C10.1556 46.3606 10.6537 46.7067 10.907 46.8756C11.1602 47.036 11.6583 47.3568 12.0044 47.5763C12.3505 47.8043 13.2876 48.3024 14.0727 48.6993C14.8578 49.0876 15.6007 49.4929 15.7189 49.6027C15.837 49.7124 16.065 49.8644 16.2254 49.9319C16.3858 49.9995 16.7657 50.0839 17.0696 50.1177C17.3988 50.1515 17.8631 50.2866 18.2514 50.4639C18.5976 50.6243 19.3911 50.9198 19.9989 51.1309C20.8516 51.4095 21.434 51.5446 22.4049 51.6796C23.114 51.7725 23.8484 51.8823 24.0341 51.9329C24.2199 51.9752 25.2076 52.068 26.229 52.144C27.259 52.2116 28.424 52.2453 28.846 52.22C29.2681 52.1862 30.0279 52.0934 30.5344 52.0005C31.0409 51.9161 31.8598 51.8063 32.3494 51.7641C32.8391 51.7134 33.506 51.6205 33.8268 51.5446C34.1476 51.4686 34.8229 51.2744 35.321 51.114C35.8275 50.9536 36.2834 50.8269 36.334 50.8269C36.3931 50.8269 36.7477 50.6834 37.1191 50.5061C37.5497 50.295 38.0224 50.143 38.4276 50.0839C38.7737 50.0248 39.1958 49.9151 39.3562 49.8306C39.5166 49.7462 39.9387 49.5098 40.2848 49.3072C40.631 49.113 41.1459 48.8344 41.4245 48.7077C41.7031 48.5726 42.1167 48.3615 42.3531 48.2349C42.581 48.1083 43.9908 47.1964 45.4766 46.2001C46.9624 45.2039 48.4988 44.1232 48.8956 43.8023C49.2924 43.473 50.8963 41.9871 52.475 40.4927C54.9822 38.1117 55.5732 37.5038 57.3291 35.4606C58.4265 34.1857 59.6675 32.7251 60.0811 32.2185C60.5032 31.7119 61.2377 30.8592 61.7189 30.3188C62.2085 29.7785 62.6812 29.2466 62.7741 29.1368C62.8754 29.0186 63.0274 28.8498 63.1202 28.7569C63.2131 28.6556 63.8547 27.9379 64.5469 27.1443C65.2392 26.3506 66.0158 25.4219 66.2775 25.0757C66.5308 24.7296 66.9782 24.223 67.2568 23.9444C67.5354 23.6742 67.8561 23.404 67.9743 23.3449C68.0925 23.2858 68.6075 22.7877 69.1224 22.2304C69.6374 21.6816 70.5069 20.8373 71.0556 20.3476C71.6044 19.858 72.4401 19.0812 72.9044 18.6168C73.3772 18.1525 73.8246 17.6459 73.909 17.5024C73.9934 17.3335 74.1707 17.1731 74.3733 17.0971C74.5422 17.0211 74.8123 16.9029 74.9727 16.8185C75.1331 16.7425 75.8844 16.219 76.6442 15.6618C77.404 15.1045 78.2988 14.4713 78.6365 14.2518C78.9657 14.0323 79.7762 13.6101 80.4262 13.3062C81.2619 12.9262 81.9204 12.6898 82.6633 12.5125C83.2458 12.369 84.0393 12.2086 84.4361 12.1495C84.9933 12.0735 85.4322 12.0735 86.3777 12.1495C87.0531 12.2086 88.1759 12.3606 88.8681 12.4957C89.9149 12.7067 90.2779 12.8165 90.9786 13.1542C91.4429 13.3822 92.1098 13.6355 92.4559 13.7199C92.9287 13.8381 93.1735 13.9563 93.4267 14.1758C93.6125 14.3447 94.0514 14.6655 94.3976 14.9019C94.7437 15.1299 95.4106 15.628 95.8749 16.0079C96.3392 16.3794 96.9301 16.9198 97.1834 17.19C97.4367 17.4686 97.8672 18.0343 98.1373 18.448C98.4075 18.8701 98.838 19.5709 99.0997 20.0099C99.353 20.449 99.6147 20.9218 99.6738 21.0653C99.7329 21.2088 99.8257 21.5466 99.8848 21.8252C99.9439 22.1038 100.121 22.7455 100.282 23.2605C100.51 23.995 100.585 24.4425 100.661 25.3712C100.729 26.224 100.729 26.7728 100.661 27.3553C100.602 27.7944 100.408 28.7822 100.214 29.5505C100.02 30.3188 99.7919 31.0956 99.716 31.2813C99.6316 31.4671 99.3952 31.847 99.1841 32.1256C98.9815 32.4043 98.6101 32.9784 98.3653 33.3921C98.1204 33.8058 97.6646 34.4137 97.3522 34.743C97.0399 35.0723 96.7106 35.486 96.6178 35.6717C96.5165 35.8575 96.373 36.0685 96.2886 36.1445C96.1957 36.2205 95.9762 36.364 95.7905 36.4654C95.6048 36.5667 95.3599 36.7186 95.2417 36.8031C95.1236 36.8959 94.5917 37.2843 94.0599 37.6643C93.528 38.0442 92.9793 38.4072 92.8358 38.4663C92.6923 38.5254 92.1858 38.669 91.6961 38.7956C91.2065 38.9223 90.5227 39.1418 90.1766 39.2769C89.8305 39.4204 89.1804 39.6399 88.7415 39.775C88.3025 39.9101 87.6187 40.0621 87.2219 40.1212C86.6648 40.1972 86.268 40.2056 85.4491 40.1296C84.8666 40.0705 83.862 39.9101 83.212 39.775C82.562 39.6399 81.6249 39.3697 81.1184 39.184C80.6203 38.9898 79.9028 38.6774 79.5229 38.4917C79.1346 38.2975 78.5943 38.002 78.3157 37.8331C78.0371 37.6727 77.4631 37.2843 77.0494 36.9804C76.6357 36.6764 76.1883 36.364 76.0533 36.2796C75.9266 36.2036 75.6818 35.9166 75.4961 35.6548C75.3188 35.3846 74.9727 34.9878 74.7194 34.7767C74.4577 34.5572 74.0272 34.0338 73.7064 33.5525C73.4025 33.0966 72.9888 32.4296 72.8031 32.0834C72.609 31.7373 72.381 31.2222 72.2797 30.9436C72.1869 30.665 72.0265 30.15 71.9336 29.8038C71.8492 29.4577 71.731 28.7316 71.6888 28.1996C71.6381 27.6677 71.5537 27.0007 71.5031 26.7221C71.444 26.4266 71.3005 26.0805 71.1654 25.9031C70.9966 25.6752 70.8277 25.557 70.5913 25.4979C70.4056 25.4472 70.127 25.4303 69.9751 25.4557C69.8316 25.481 69.6036 25.5739 69.477 25.6499C69.3588 25.7258 68.3711 26.7981 67.2821 28.0308C66.2015 29.2635 64.9943 30.6734 64.5976 31.1463C64.2008 31.6275 63.593 32.3367 63.2384 32.7082C62.8923 33.0882 62.0903 34.0338 61.4572 34.8274C60.824 35.6211 60.0221 36.5413 59.6675 36.8791C59.3129 37.2083 58.9246 37.6643 58.798 37.8922L58.5616 38.289C58.5194 54.6178 58.5363 57.9275 58.5954 58.2145C58.6713 58.5607 58.7642 58.7127 59.1357 59.0588C59.3889 59.2952 59.7941 59.633 60.0474 59.8103C60.3006 59.9876 60.824 60.2831 61.2208 60.4688C61.6176 60.6461 62.0734 60.8657 62.2338 60.9501C62.3942 61.0345 62.8501 61.3047 63.2469 61.5495C63.6436 61.7944 64.1164 62.0814 64.3021 62.1828C64.4878 62.2925 64.8086 62.4698 65.0197 62.5965C65.2307 62.7147 65.6866 62.9089 66.0327 63.0186C66.573 63.1959 66.7165 63.2888 67.012 63.635C67.2652 63.9305 67.5945 64.1669 68.1938 64.4793C68.8101 64.8001 69.1646 64.9352 69.5361 64.9774C69.8822 65.0196 70.1355 65.0027 70.3381 64.9267C70.4985 64.8676 70.7011 64.7579 70.7939 64.6819C70.8783 64.6059 71.0219 64.4033 71.1063 64.2344C71.2583 63.922 71.2667 63.6012 71.2582 56.0025C71.2582 50.4976 71.2836 48.0154 71.3427 47.855C71.3933 47.7199 71.4862 47.6186 71.5368 47.6186C71.5959 47.6186 71.8323 47.7452 72.0687 47.8887C72.2966 48.0323 72.7187 48.3025 72.9973 48.4966C73.2759 48.6824 74.0356 49.0961 74.6857 49.4169C75.5636 49.856 76.0364 50.0333 76.526 50.1177C76.8806 50.1852 77.2605 50.2866 77.3618 50.3541C77.4715 50.4216 77.9358 50.6074 78.4001 50.7678C78.8644 50.9367 79.4891 51.1646 79.793 51.2913C80.0969 51.4095 80.8314 51.5952 81.4392 51.7134C82.047 51.8232 83.0516 51.9752 83.6763 52.0427C84.3854 52.1271 85.5251 52.1778 86.6732 52.1778C88.0661 52.1778 88.8259 52.1356 89.7123 52.0089C90.3623 51.9161 91.4598 51.7303 92.1605 51.5868C92.8527 51.4517 93.6378 51.2659 93.891 51.1731C94.1443 51.0802 94.5664 50.9282 94.8197 50.8269C95.0729 50.734 95.4528 50.5398 95.6638 50.4048C95.9171 50.2443 96.2463 50.1261 96.6347 50.067C96.9555 50.0164 97.3944 49.9319 97.6055 49.8813C97.8165 49.8306 98.3062 49.6111 98.7029 49.3916C99.0997 49.1721 99.8764 48.7584 100.434 48.4629C100.991 48.1758 101.582 47.8212 101.75 47.6692C101.919 47.5257 102.586 47.0191 103.228 46.5463C103.869 46.0735 104.798 45.3305 105.288 44.8999C105.777 44.4609 106.292 43.9374 106.444 43.7348C106.588 43.5237 106.824 43.1691 106.959 42.9327C107.103 42.7047 107.39 42.3586 107.618 42.1728C107.837 41.9871 108.234 41.5734 108.487 41.2441C108.749 40.9148 109.137 40.3913 109.348 40.0621C109.559 39.7328 109.872 39.2093 110.04 38.8801C110.209 38.5508 110.505 37.9429 110.69 37.5292C110.885 37.1155 111.189 36.6089 111.374 36.4147C111.568 36.1952 111.72 35.9419 111.746 35.7815C111.763 35.6295 111.822 35.2749 111.872 34.9963C111.923 34.7176 112.058 34.2786 112.176 34.0253C112.294 33.7636 112.463 33.1304 112.556 32.59C112.641 32.0581 112.852 31.1463 113.012 30.5637C113.172 29.9811 113.341 29.2635 113.4 28.9595C113.451 28.6302 113.493 27.5326 113.485 26.2578C113.485 25.0757 113.459 23.9359 113.426 23.7249C113.4 23.5138 113.324 23.0579 113.257 22.7117C113.189 22.3655 113.054 21.7914 112.97 21.4452C112.885 21.0991 112.784 20.6432 112.759 20.4321C112.725 20.221 112.632 19.7651 112.548 19.4189C112.463 19.0728 112.286 18.4986 112.142 18.1525C112.007 17.8063 111.83 17.3082 111.763 17.0549C111.687 16.8016 111.492 16.2697 111.324 15.8729C111.155 15.476 110.842 14.8681 110.631 14.522C110.42 14.1758 110.142 13.7368 110.015 13.551C109.888 13.3653 109.627 12.9431 109.424 12.6223C109.222 12.3015 108.96 11.8793 108.842 11.6936C108.724 11.5078 108.512 11.1279 108.369 10.8577C108.149 10.4187 108.048 10.3174 107.567 10.0472C107.069 9.76856 107.001 9.70102 106.833 9.28731C106.731 9.03402 106.503 8.67097 106.326 8.48522C106.149 8.29948 105.794 7.97864 105.541 7.76757C105.296 7.55649 104.646 7.0077 104.114 6.54333C103.574 6.07897 102.907 5.53017 102.628 5.3191C102.35 5.10802 101.928 4.81251 101.7 4.6521C101.472 4.49168 100.991 4.19618 100.645 3.9851C100.298 3.78247 99.4796 3.36876 98.8296 3.06481C98.1796 2.76086 97.4535 2.43159 97.2256 2.33027C96.9977 2.22895 96.2886 1.97566 95.6638 1.77303C95.0391 1.5704 94.2287 1.30022 93.8657 1.16514C93.5111 1.03849 92.8611 0.86963 92.439 0.793643C92.0085 0.717656 91.2741 0.574125 90.8097 0.464365C90.2948 0.33772 89.324 0.211075 88.3194 0.126645C87.4161 0.0591011 85.9725 0 85.1114 0C84.2504 0 83.0432 0.0591011 82.41 0.135088C81.7853 0.202632 80.6794 0.371492 79.9619 0.515023C79.2443 0.650112 78.3326 0.844301 77.9358 0.945617C77.539 1.04693 77.0494 1.19046 76.8384 1.27489C76.6273 1.35932 75.8844 1.60417 75.1922 1.83213C74.1538 2.16141 73.8668 2.28806 73.6135 2.5329C73.4363 2.69332 73.3012 2.88751 73.2927 2.95505C73.2927 3.04793 73.1239 3.11547 72.6849 3.19146C72.3473 3.25056 71.8408 3.41942 71.5622 3.56295C71.2836 3.70648 70.8277 3.94288 70.5491 4.08642C70.2621 4.22995 69.8316 4.50012 69.5783 4.69431C69.3251 4.8885 68.7679 5.25999 68.3542 5.53017C67.9406 5.80035 67.3243 6.27315 67.0035 6.58555C66.6827 6.89794 66.0665 7.40452 65.6528 7.72535C65.2392 8.03774 64.7411 8.43456 64.5469 8.60343C64.3612 8.77229 64.091 9.07623 63.956 9.27887C63.8209 9.4815 63.4241 9.88676 63.078 10.1654C62.7319 10.4524 62.0481 11.0688 61.5754 11.5331C61.0942 11.9891 60.5792 12.5379 60.4357 12.7489C60.2922 12.96 59.8701 13.4328 59.4987 13.8043C59.1357 14.1758 58.7304 14.6317 58.6207 14.8175C58.5025 15.0032 57.9876 15.5942 57.4726 16.1346C56.9576 16.6665 56.4258 17.2575 56.2823 17.4348C56.1388 17.6206 55.6745 18.2453 55.2439 18.8279C54.8218 19.4105 54.3407 20.0437 54.1887 20.2463C54.0452 20.4405 53.7835 20.7782 53.6231 20.9809C53.4627 21.1835 53.0997 21.555 52.8295 21.7998C52.551 22.0447 52.1373 22.5091 51.8925 22.8383C51.6561 23.1676 50.795 24.1301 49.9846 24.9913C49.1742 25.8525 48.3638 26.7812 48.178 27.0514C47.9923 27.33 47.6715 27.7015 47.4605 27.8957C47.2494 28.0814 46.7851 28.5458 46.4221 28.9173C46.0591 29.2888 45.5779 29.8207 45.35 30.0993C45.1221 30.3779 44.3876 31.104 43.7292 31.7119C43.0622 32.3283 42.0661 33.2317 41.5089 33.7214C40.9518 34.2111 40.1582 34.8527 39.7361 35.1398C39.314 35.4184 38.8413 35.773 38.6809 35.925C38.5205 36.077 38.0477 36.3725 37.6256 36.6004C37.2035 36.82 36.6801 37.1408 36.4438 37.3181C36.2158 37.4954 35.8106 37.7656 35.5574 37.9344C35.3041 38.0949 34.806 38.3481 34.4599 38.5001C34.1138 38.6521 33.2612 38.956 32.5605 39.1756C31.8682 39.3951 30.8215 39.6821 30.239 39.8088C29.6565 39.9354 28.787 40.079 28.2973 40.1296C27.4616 40.214 27.3434 40.214 26.229 39.9861C25.579 39.851 24.7686 39.6906 24.4309 39.6315C24.1017 39.5639 23.6205 39.4035 23.3841 39.2684C23.1393 39.1333 22.5568 38.9223 22.0925 38.7956C21.6282 38.6774 21.0035 38.4748 20.6996 38.3397C20.3957 38.2131 19.8554 37.9007 19.4839 37.6558C19.1209 37.4025 18.7411 37.1324 18.6398 37.0648C18.5469 36.9973 18.2177 36.7524 17.9138 36.5329C17.6099 36.3049 17.23 35.9588 17.0696 35.7561C16.9092 35.562 16.6221 35.1989 16.4364 34.9541C16.2507 34.7092 15.913 34.2955 15.6851 34.0338C15.4656 33.772 15.1617 33.4765 15.0097 33.3837C14.7902 33.2317 14.6974 33.0544 14.461 32.3283C14.3006 31.847 14.0811 31.3151 13.9714 31.1547C13.8616 30.9943 13.7097 30.6481 13.6337 30.3948C13.5577 30.1415 13.3636 29.5336 13.1947 29.0439L12.8908 28.1574C12.8993 24.9153 12.9415 23.7671 13.0006 23.4293C13.0512 23.1001 13.2116 22.5344 13.3551 22.1629C13.4986 21.7914 13.7688 21.2426 13.9461 20.9387C14.1318 20.6347 14.4104 20.069 14.5792 19.6722C14.8747 18.963 14.9 18.9292 16.6728 17.1562C17.6605 16.1599 18.817 15.0877 19.2645 14.7499C19.7625 14.3784 20.2859 14.0661 20.6574 13.9225C20.9782 13.7959 21.6704 13.5257 22.1769 13.3231C22.6834 13.112 23.2153 12.884 23.3588 12.8165C23.5023 12.7489 24.0088 12.5885 24.4985 12.4703C24.9881 12.3437 25.6719 12.2001 26.018 12.141C26.3641 12.0819 27.2421 12.0397 27.9596 12.0397C28.6772 12.0397 29.513 12.0904 29.8169 12.1495C30.1208 12.2086 31.0325 12.4703 31.8429 12.7236C32.6533 12.9853 33.5313 13.2471 33.7846 13.3146C34.0378 13.3906 34.5443 13.5679 34.9074 13.7283C35.4308 13.9563 35.8528 14.2602 37.06 15.2734C37.9127 15.9911 38.7906 16.6496 39.103 16.81L39.6517 17.0886C44.1766 17.19 45.7468 17.19 46.2364 17.1393C46.7007 17.0971 47.9754 17.0886 49.0644 17.114C50.3983 17.1477 51.2171 17.1309 51.5548 17.0633C51.8334 17.0127 52.188 16.8776 52.3315 16.7763C52.4834 16.6749 52.6523 16.4808 52.7029 16.3372C52.762 16.1937 52.7873 15.932 52.762 15.7462C52.7367 15.5605 52.6101 15.1636 52.4834 14.8597C52.3484 14.5557 52.1035 14.0998 51.9431 13.8465C51.7743 13.5932 51.6055 13.3146 51.5548 13.2386C51.5126 13.1542 51.0652 12.4957 50.5756 11.7611C49.8158 10.6297 49.3515 10.0725 47.5702 8.1475C45.9747 6.40824 45.2993 5.74969 44.7591 5.36131C44.3707 5.08269 43.9149 4.7703 43.746 4.66898C43.5856 4.56767 43.2226 4.36504 42.944 4.21306C42.6655 4.06953 42.3278 3.8669 42.1843 3.77402C42.0408 3.67271 41.7791 3.55451 41.5933 3.49541C41.4076 3.44475 40.918 3.26744 40.4959 3.09858C40.0738 2.93817 39.2971 2.64266 38.7653 2.44847C38.2335 2.25428 37.5075 1.98411 37.1613 1.84902C36.8152 1.72237 36.258 1.51974 35.9373 1.40154C35.6165 1.29178 35.0593 1.09759 34.7132 0.987832C34.3671 0.86963 33.43 0.658555 32.6449 0.515023C31.8598 0.371492 30.6948 0.194189 30.0701 0.126645C29.3526 0.0506581 28.1876 0.00844301 26.9466 0.00844301C25.7985 0.016886 24.642 0.0675441 24.203 0.126645Z" fill="#FF4700"/>
</svg>
